# xmcd
#
# Track frame offsets:
# 183
# 5295
# 16208
# 21983
# 36455
# 49073
# 66200
# 87158
# 106798
# 118058
# 128658
# 139735
# 152278
# 164208
# 183268
# 192200
#
# Disc length: 2738 seconds
#
#
# Revision: 0
# Processed by: cddbd v1.5.1PL0 Copyright (c) Steve Scherf et al.
# Submitted via: FreeRIP 2.51 
#
DISCID=cd0ab010
DTITLE=Various Artist - Queens of Country
DYEAR=1900
DGENRE=Country
TTITLE0=Tammy Wynette - Your good girl's gonna go bad
TTITLE1=Tammy Wynette - D.I.V.O.R.C.E.
TTITLE2=Tammy Wynette - Singing my song
TTITLE3=Lynn Anderson - Cry
TTITLE4=Lynn Anderson - Rose Garden
TTITLE5=Tanya Tucker - The night they drove old dixie down
TTITLE6=Tanya Tucker - Texas when I die
TTITLE7=Tanya Tucker - Delta Dawn
TTITLE8=Stella Parton - Standard lie number one
TTITLE9=Stell Parton - The danger of a stranger
TTITLE10=Dottie West - A lesson in leaving
TTITLE11=Dottie West - Here comes my baby
TTITLE12=Jeanie C. Riley - Total woman
TTITLE13=Jeanie C. Riley - Harper Valley P.T.A.
TTITLE14=Kathy Mattea - Put yourself in my place
TTITLE15=Kathy Mattea - Ball and Chain
EXTD=
EXTT0=
EXTT1=
EXTT2=
EXTT3=
EXTT4=
EXTT5=
EXTT6=
EXTT7=
EXTT8=
EXTT9=
EXTT10=
EXTT11=
EXTT12=
EXTT13=
EXTT14=
EXTT15=
PLAYORDER=
